<svg width="55" height="53" viewBox="0 0 55 53" fill="none" xmlns="http://www.w3.org/2000/svg">
<g id="Oskin3">
<g id="Oskin2">
<ellipse id="Ellipse 4" cx="27.7619" cy="26.5" rx="26.9206" ry="26.5" fill="#D9BBEC"/>
<g id="Exclude">
<mask id="path-2-inside-1_23_5261" fill="white">
<path fill-rule="evenodd" clip-rule="evenodd" d="M27.5 43C36.6127 43 44 35.6127 44 26.5C44 17.3873 36.6127 10 27.5 10C18.3873 10 11 17.3873 11 26.5C11 35.6127 18.3873 43 27.5 43ZM27.5 33C31.0899 33 34 30.0899 34 26.5C34 22.9101 31.0899 20 27.5 20C23.9101 20 21 22.9101 21 26.5C21 30.0899 23.9101 33 27.5 33Z"/>
</mask>
<path fill-rule="evenodd" clip-rule="evenodd" d="M27.5 43C36.6127 43 44 35.6127 44 26.5C44 17.3873 36.6127 10 27.5 10C18.3873 10 11 17.3873 11 26.5C11 35.6127 18.3873 43 27.5 43ZM27.5 33C31.0899 33 34 30.0899 34 26.5C34 22.9101 31.0899 20 27.5 20C23.9101 20 21 22.9101 21 26.5C21 30.0899 23.9101 33 27.5 33Z" fill="#A751E8"/>
<path d="M43 26.5C43 35.0604 36.0604 42 27.5 42V44C37.165 44 45 36.165 45 26.5H43ZM27.5 11C36.0604 11 43 17.9396 43 26.5H45C45 16.835 37.165 9 27.5 9V11ZM12 26.5C12 17.9396 18.9396 11 27.5 11V9C17.835 9 10 16.835 10 26.5H12ZM27.5 42C18.9396 42 12 35.0604 12 26.5H10C10 36.165 17.835 44 27.5 44V42ZM33 26.5C33 29.5376 30.5376 32 27.5 32V34C31.6421 34 35 30.6421 35 26.5H33ZM27.5 21C30.5376 21 33 23.4624 33 26.5H35C35 22.3579 31.6421 19 27.5 19V21ZM22 26.5C22 23.4624 24.4624 21 27.5 21V19C23.3579 19 20 22.3579 20 26.5H22ZM27.5 32C24.4624 32 22 29.5376 22 26.5H20C20 30.6421 23.3579 34 27.5 34V32Z" fill="#D9BBEC" mask="url(#path-2-inside-1_23_5261)"/>
</g>
</g>
</g>
</svg>
