<svg width="55" height="55" viewBox="0 0 55 55" fill="none" xmlns="http://www.w3.org/2000/svg">
<g id="Xskin6">
<g id="Group">
<g id="Isolation Mode">
<g id="Group_2">
<path id="Vector" d="M53.8367 29.9266C53.0949 28.4144 51.4277 27.8653 49.8626 28.2111C48.9064 28.4216 48.0378 28.7034 47.0465 28.7313C46.0945 28.7581 45.1434 28.6859 44.1913 28.6931C42.4747 28.7076 40.754 28.9099 39.0786 29.2794C35.6969 30.0246 32.445 31.4883 29.6661 33.5609C28.3266 34.5601 27.1004 35.9546 25.2818 35.7492C24.3112 35.6398 23.3653 35.3332 22.3957 35.197C21.4508 35.0648 20.4998 34.9988 19.5457 35.0153C17.3674 35.0545 15.3345 35.5933 13.2511 36.1713C11.0409 36.7845 8.80599 37.0105 6.51958 36.7896C6.04354 36.7432 5.81995 37.1127 5.84365 37.4864C3.74373 37.8105 1.42537 38.4339 0.446512 40.5169C-0.582838 42.7072 0.25074 45.2939 2.16313 46.6832C3.12241 47.38 4.29705 47.7588 5.4758 47.8217C5.92093 47.8455 6.64631 47.669 6.99561 48.0168C7.32121 48.3409 7.34182 48.9881 7.42219 49.4123C7.6159 50.4322 7.98993 51.3167 8.87915 51.9144C9.66739 52.4449 10.6803 52.64 11.6179 52.5698C12.1228 52.5316 12.6277 52.4377 13.1017 52.2581C13.6581 52.0465 14.1588 51.6615 14.7286 51.4943C15.4025 51.2971 15.7271 51.7792 16.1516 52.2168C16.5668 52.6452 17.0295 53.0271 17.5261 53.3574C19.5086 54.6776 22.1103 55.1039 24.3998 54.4422C25.7156 54.0624 26.9603 53.2666 28.3554 53.2077C29.8237 53.1468 31.2436 53.7909 32.6737 54.0386C35.1724 54.4711 38.0791 54.1821 39.8133 52.1022C40.2316 51.5996 40.4954 51.0546 40.7746 50.4693C41.1115 49.7654 41.4454 49.4619 42.213 49.2844C43.6061 48.9623 44.925 48.4999 46.1326 47.7154C48.1068 46.4314 50.3602 43.9964 49.7472 41.4572C52.5312 40.0534 54.1304 36.674 53.2741 33.6291C54.1778 32.6423 54.4364 31.1477 53.8378 29.9266H53.8367Z" fill="#D6E4FF"/>
<path id="Vector_2" d="M49.265 13.8222C48.9239 5.73186 43.2692 6.6598 37.1353 8.44344C33.0695 9.62633 28.8593 10.0454 24.8017 11.2913C20.4432 12.63 16.0362 13.8305 11.6736 15.1672C8.79986 16.0476 4.98436 16.574 3.57686 19.6139C2.29507 22.3822 3.13998 26.1002 3.61189 28.9924C4.12296 32.1241 5.006 35.1783 6.20227 38.1149C7.41194 41.0845 8.69373 43.6784 11.8024 44.9718C14.6442 46.1536 17.9115 46.6212 20.9388 47.0909C24.5544 47.6524 28.1875 47.9992 31.8443 48.1107C33.0365 48.1468 33.9144 47.6875 34.4842 46.9908C34.5501 46.9402 34.6171 46.8927 34.683 46.837C37.26 44.626 39.8246 42.4026 42.3748 40.1618C44.517 38.279 47.4144 36.386 48.4046 33.5774C49.4164 30.7099 49.1795 27.1189 49.2804 24.1111C49.3948 20.6853 49.4082 17.2481 49.265 13.8222Z" fill="#C17459"/>
<path id="Vector_3" d="M49.0064 11.6639C47.1373 13.1978 45.2785 14.7461 43.3815 16.2458C40.2121 18.752 36.9262 21.1291 33.3611 23.0449C31.8485 23.8572 30.1999 24.5395 28.476 24.6882C26.1597 24.8884 3.5676 19.5984 3.39862 20.0495C2.38473 22.7631 3.16369 26.2488 3.61088 28.9914C4.12195 32.1231 5.00499 35.1773 6.20126 38.1139C7.41092 41.0835 8.69272 43.6774 11.8014 44.9708C14.6432 46.1526 17.9105 46.6202 20.9378 47.0899C24.5534 47.6514 28.1865 47.9982 31.8433 48.1097C33.0355 48.1458 33.9134 47.6865 34.4832 46.9898C34.5491 46.9392 34.6161 46.8917 34.682 46.836C37.259 44.625 39.8236 42.4016 42.3738 40.1608C44.516 38.278 47.4134 36.385 48.4036 33.5764C49.4154 30.7089 49.1785 27.1179 49.2794 24.1101C49.3938 20.6843 49.4082 17.2471 49.264 13.8212C49.23 13.013 49.1403 12.2998 49.0053 11.6629L49.0064 11.6639Z" fill="#91462C"/>
<path id="Vector_4" d="M3.74579 29.7459C7.12956 31.2962 10.7812 32.2283 14.4257 32.925C18.0186 33.6114 21.6919 34.1812 25.3374 34.494C27.1488 34.6498 28.951 34.5765 30.6913 34.014C32.4491 33.4452 34.1338 32.4977 35.7206 31.5636C40.6489 28.661 44.9961 24.9234 49.3484 21.2199C49.3865 18.754 49.3669 16.286 49.2639 13.8232C49.2299 13.015 49.1403 12.3018 49.0053 11.6649C47.1362 13.1987 45.2774 14.747 43.3804 16.2468C40.211 18.753 36.9251 21.1301 33.36 23.0459C31.8474 23.8582 30.1988 24.5405 28.4749 24.6891C26.1586 24.8883 3.5665 19.5994 3.39752 20.0505C2.38363 22.7641 3.1626 26.2498 3.60978 28.9924C3.651 29.2442 3.69839 29.494 3.74373 29.7448L3.74579 29.7459Z" fill="#B76C4D"/>
<path id="Vector_5" d="M17.9641 40.0544C21.4179 41.004 25.0644 41.8432 28.6728 41.6646C32.2441 41.4881 35.1117 39.5187 37.9277 37.4987C41.8895 34.6571 45.6236 31.5089 49.2114 28.2007C49.2557 26.799 49.2372 25.4014 49.2804 24.1122C49.2918 23.7747 49.2969 23.4371 49.3062 23.0996C47.7215 24.4414 46.1336 25.7792 44.5118 27.0756C41.4547 29.5209 38.2791 31.8691 34.8108 33.7013C33.1478 34.5797 31.4229 35.4271 29.5589 35.7667C27.6733 36.1094 25.7805 35.9989 23.8908 35.7574C17.2304 34.9079 10.3258 34.0873 4.09204 31.4501C4.56911 33.5475 5.21619 35.6015 6.00443 37.605C10.1033 37.6907 14.0435 38.9768 17.9641 40.0555V40.0544Z" fill="#B76C4D"/>
<path id="Vector_6" d="M46.7241 32.3149C43.7463 34.8913 40.6593 37.351 37.4197 39.5898C35.8958 40.6437 34.3605 41.6346 32.6182 42.289C31.0994 42.8598 29.4796 43.1127 27.8599 43.1044C24.0866 43.0869 20.3803 42.2095 16.7688 41.198C13.4356 40.2638 10.0703 39.2327 6.59692 39.0551C7.7087 41.6253 9.02759 43.8167 11.8034 44.9706C14.6452 46.1525 17.9126 46.6201 20.9398 47.0897C24.5554 47.6513 28.1886 47.9981 31.8454 48.1096C33.0375 48.1457 33.9154 47.6864 34.4852 46.9896C34.5512 46.939 34.6181 46.8916 34.6841 46.8358C37.2611 44.6249 39.8257 42.4015 42.3759 40.1606C44.518 38.2779 47.4155 36.3849 48.4057 33.5763C48.7735 32.5327 48.9755 31.3932 49.0898 30.2216C48.3088 30.9266 47.5216 31.6254 46.7251 32.3139L46.7241 32.3149Z" fill="#B76C4D"/>
<path id="Vector_7" d="M34.1122 11.3098C33.1848 10.6089 31.9154 10.2765 30.7696 10.6027C30.5934 10.6533 30.4234 10.7235 30.2585 10.804C29.0654 10.0732 27.6372 9.89566 26.1236 10.7152C25.6105 10.2765 25.0098 9.93901 24.3761 9.74805C21.7754 8.96668 19.3612 10.4747 17.9115 12.5763C16.5545 14.5426 16.1155 17.0374 17.5498 19.0874C18.6915 20.7193 20.2133 21.1765 21.8207 20.969C23.3323 21.9166 24.9799 21.802 26.6811 21.2787C26.6893 21.2818 26.6986 21.287 26.7037 21.289C27.2117 21.5058 27.6651 21.6224 28.2081 21.7112C29.3054 21.8908 30.4492 21.7938 31.5135 21.4635C33.5609 20.8287 35.7453 19.3836 36.3316 17.2242C36.9107 15.0897 35.8494 12.6237 34.1132 11.3108L34.1122 11.3098Z" fill="white"/>
<path id="Vector_8" d="M33.1632 14.8926C33.1261 14.7997 33.0757 14.7244 33.0169 14.6604C32.8521 13.91 31.6043 13.9616 31.6146 14.8214C31.6393 17.0004 28.612 16.8043 27.1839 16.7465C26.1917 16.7062 25.1881 16.8393 24.2 16.7526C23.4344 16.6856 22.5153 16.379 22.2546 15.5728C22.167 15.3003 21.9712 15.1507 21.7528 15.1001C21.7621 14.4426 20.6379 14.2279 20.3309 14.9752C19.7549 16.379 20.8255 17.7054 22.0609 18.2452C23.5446 18.8944 25.2602 18.9584 26.8511 18.8263C27.6651 18.7582 28.475 18.6395 29.2808 18.5094C30.0103 18.3918 30.7563 18.2999 31.4456 18.0233C32.6491 17.5402 33.7021 16.2458 33.1622 14.8937L33.1632 14.8926Z" fill="#E5E6E7"/>
<g id="Group_3">
<path id="Vector_9" d="M31.8237 7.8768C30.918 6.95505 29.7537 6.48953 28.5389 6.38631C26.3071 5.80312 23.7847 6.51843 22.1928 8.22568C20.1052 10.4645 19.8713 14.1763 22.1876 16.3491C23.5776 17.6537 25.4457 17.9851 27.2324 17.6661C29.2375 17.7229 31.1931 16.7857 32.2689 14.871C32.5708 14.3342 32.7634 13.7624 32.8655 13.1782C33.528 11.4183 33.3569 9.43645 31.8248 7.8768H31.8237Z" fill="#F85551"/>
<path id="Vector_10" d="M27.9474 7.79824C27.7166 7.55051 27.3838 7.41323 27.0396 7.3802C26.6914 7.23673 26.3019 7.20473 25.9402 7.29866C25.7692 7.07054 25.4807 6.94152 25.186 7.02822C24.6873 7.17583 24.2494 7.41323 24.0557 7.92314C23.8455 8.47536 24.1381 9.12255 24.7089 9.29699C24.9418 9.36821 25.2066 9.3744 25.4673 9.35066C25.6919 9.42704 25.9443 9.44665 26.1803 9.42085C26.5945 9.37647 26.984 9.26912 27.356 9.09158C27.3591 9.09158 27.3632 9.08952 27.3663 9.08848C27.3962 9.08023 27.4178 9.06165 27.4456 9.05029C27.5672 9.0121 27.6867 8.96875 27.8052 8.91404C28.002 8.82321 28.1174 8.59716 28.1442 8.39485C28.1751 8.16673 28.1051 7.96546 27.9484 7.79721L27.9474 7.79824Z" fill="#BD1E2D"/>
<path id="Vector_11" d="M23.5322 0.195142C22.8615 -0.425207 21.8548 0.579119 22.5276 1.20153C24.3772 2.91085 25.4312 5.34167 25.3983 7.86435C25.3869 8.77991 26.8068 8.78094 26.8181 7.86435C26.8552 4.98659 25.6445 2.14805 23.5312 0.196174L23.5322 0.195142Z" fill="#15A208"/>
</g>
<g id="Vector_12" style="mix-blend-mode:multiply" opacity="0.33">
<path d="M31.6856 39.7148C31.3775 37.6948 31.0602 35.6758 30.7851 33.6517C30.5852 32.1839 30.5079 30.7409 30.4275 29.2648C30.3647 28.0985 30.2874 26.7329 29.5723 25.7543C28.7964 24.6922 27.086 24.4847 25.8939 24.2257C22.2762 23.4412 18.5802 23.0717 14.944 22.3842C11.0677 21.6514 7.20687 20.7823 3.27287 20.4272C2.45681 23.082 3.18426 26.3747 3.61084 28.9923C4.12191 32.124 5.00494 35.1783 6.20122 38.1149C7.41088 41.0845 8.69268 43.6784 11.8013 44.9717C14.6431 46.1536 17.9105 46.6212 20.9377 47.0908C24.5533 47.6524 28.1865 47.9992 31.8433 48.1107C32.174 48.121 32.478 48.089 32.7613 48.0281C32.5099 45.2453 32.106 42.4749 31.6856 39.7148Z" fill="#91462C"/>
</g>
</g>
</g>
</g>
</g>
</svg>
