<svg width="54" height="53" viewBox="0 0 54 53" fill="none" xmlns="http://www.w3.org/2000/svg">
<g id="Oskin5">
<path id="Vector" d="M50.1312 5.82012C50.014 5.68658 49.8967 5.55623 49.7763 5.42587C49.659 5.31142 49.5386 5.19696 49.4148 5.08568C45.3154 1.35308 39.1483 -0.0935419 33.8344 1.8904C30.8778 2.99364 28.6832 4.76138 26.977 6.92972C25.8341 5.44495 24.4568 4.13822 22.7408 3.124C18.306 0.501003 12.7316 0.399263 8.10466 2.57396C-1.65388 7.165 -1.16221 19.4406 2.13948 27.9169C4.0964 32.9371 7.06922 37.544 10.423 41.779C13.7312 45.9535 17.6776 49.9564 22.8581 51.8099C33.4632 55.6093 42.551 43.8201 47.3277 36.3327C52.7198 27.8851 57.7179 14.4681 50.1247 5.82012H50.1312Z" fill="#EE8495"/>
</g>
</svg>
