<svg width="54" height="41" viewBox="0 0 54 41" fill="none" xmlns="http://www.w3.org/2000/svg">
<g id="Isolation_Mode" clip-path="url(#clip0_23_5315)">
<path id="Vector" d="M49.5052 31.0487C48.6367 33.1005 46.3273 34.7658 43.8413 36.0732C38.6307 38.8168 32.232 40.401 25.9192 40.506C19.6064 40.6109 13.4081 39.2463 8.55545 36.6696C6.70885 35.6867 4.94336 34.3697 4.9195 32.6949C4.86701 28.6056 12.1484 27.2553 16.5813 26.3678C23.3092 25.0126 30.2137 24.2015 37.0991 23.9581C38.1106 23.9247 39.1222 23.8913 40.1338 23.877C41.9947 23.8531 43.9176 23.9056 45.5352 24.4735C48.6033 25.5518 50.5311 28.6247 49.5004 31.0439L49.5052 31.0487Z" fill="#E4B070"/>
<g id="Group">
<path id="Vector_2" d="M51.2277 23.5621C51.9721 24.6643 52.0341 26.1864 51.3899 27.3507C50.6885 28.62 49.3143 29.3452 48.0069 29.9655C41.5605 33.0337 34.7037 35.4004 27.5988 36.0779C20.4939 36.7555 13.1075 35.6628 6.87585 32.1796C5.2058 31.2491 3.50711 29.9751 3.08244 28.1142C2.83432 27.0262 3.1063 25.8047 3.88407 25.0126C4.80021 24.0822 6.20306 23.8675 7.50093 23.7004C13.4559 22.9465 19.4156 22.1926 25.4039 21.7536C31.4066 21.3147 37.4521 21.1906 43.4548 21.7155C44.9101 21.8443 46.3941 22.1688 47.8399 22.0065C49.1521 21.8586 50.4833 22.4551 51.2229 23.5621H51.2277Z" fill="#FFA800"/>
<path id="Vector_3" d="M5.66388 22.5123L48.2884 20.0836C48.3409 21.4196 48.5222 22.7461 48.8276 24.044C42.3669 27.9424 35.3527 30.7433 27.8661 31.6833C20.3794 32.6233 12.5493 31.5592 5.88337 28.0235C5.81657 26.2151 5.73068 24.316 5.66388 22.5076V22.5123Z" fill="#FF4C4C"/>
<path id="Vector_4" d="M52.5304 14.6774C52.9789 14.9303 53.4942 15.2977 53.4417 15.8083C53.3797 16.4333 52.5017 16.7769 52.5351 17.4067C52.5733 18.0748 53.561 18.2227 53.8903 18.8048C54.2195 19.3822 53.728 20.1409 53.1029 20.3747C52.4779 20.6085 51.0273 20.9473 50.3641 20.9186C47.983 20.8184 45.8979 20.6896 43.9033 21.997C42.7009 22.7843 42.5721 24.3589 41.2599 24.9458C40.1481 25.4421 38.6021 24.9411 37.414 25.1987C36.536 25.3896 35.596 26.7447 34.7037 26.8354C33.8973 26.9165 32.9955 26.5729 32.3036 27.0024C31.3732 27.5798 30.9771 28.7822 30.0467 29.3596C29.2307 29.8653 28.1857 29.7842 27.2457 29.5981C24.3732 29.0399 21.5008 27.7229 18.6426 28.3527C17.1395 28.6868 15.4742 29.517 14.1907 28.6724C13.0455 27.9185 12.9071 26.1865 11.7906 25.3896C10.4832 24.4591 8.55545 25.2703 7.10966 24.5737C5.92154 24.0058 5.32032 22.541 4.08448 22.0829C3.38306 21.8252 2.61006 21.9445 1.87046 21.8968C1.1261 21.8539 0.29107 21.5485 0.0477197 20.847C-0.176545 20.1933 0.462847 19.5206 0.744371 18.8859C0.877975 18.5806 1.02589 18.0414 1.13564 17.5642C1.26447 17.0155 1.70346 16.6003 2.25696 16.5049C4.10356 16.1804 7.46753 15.2309 9.26642 14.4245C12.4395 13.0073 16.1327 13.5131 19.5492 12.8928C24.483 11.9958 29.3452 9.39525 34.2504 10.4402C36.2068 10.8554 37.9961 11.8335 39.8523 12.5827C41.8945 13.4034 43.9749 13.7326 46.1603 13.4082C47.2339 13.2507 48.2693 13.036 49.3477 13.2745C50.4881 13.5227 51.5188 14.1096 52.5256 14.6726L52.5304 14.6774Z" fill="#69EA9D"/>
<path id="Vector_5" d="M49.9585 15.2738C51.0273 15.584 51.1036 17.0727 50.0825 17.5117L30.9055 25.6902C29.3118 26.3725 27.6847 27.0596 25.9574 27.2076C24.0154 27.3746 22.0877 26.8545 20.2124 26.3344C14.4674 24.7502 8.6795 23.1517 3.29716 20.6276C2.42873 20.222 2.34284 19.0243 3.15878 18.5233C4.28488 17.8266 5.5064 17.0012 5.80701 16.8341C7.45321 15.9323 9.11372 15.0639 10.7933 14.2289C14.1811 12.5397 17.6358 10.989 21.1429 9.57657C23.4523 8.64611 25.7904 7.77291 28.1476 6.96651C28.3337 6.89971 28.5341 6.84245 28.7297 6.86631C29.4693 6.96174 30.4475 7.71088 31.1203 8.03535C34.4413 9.63383 37.8291 11.0844 41.279 12.3775C44.1371 13.4511 47.0335 14.415 49.9632 15.2691L49.9585 15.2738Z" fill="#FFE7A6"/>
</g>
<g id="Group_2">
<path id="Vector_6" d="M3.38306 16.6146C4.27058 22.4408 11.7047 22.6746 16.2425 22.9131C23.147 23.271 30.0801 22.832 36.8605 21.5676C37.8625 21.3958 38.8646 21.1954 39.8475 20.9806C41.6846 20.5798 43.5407 20.055 45.0008 18.8811C46.5993 17.5737 47.6681 15.3836 47.964 13.1505C48.1691 11.5568 48.0021 9.93443 47.3484 8.60316C46.0219 5.8929 43.3689 4.05107 40.6396 2.76751C34.9089 0.0763413 28.2955 -0.687112 22.0924 0.629845C17.1825 1.67005 12.5445 4.02244 8.77018 7.33869V7.353C7.78723 8.21189 6.87109 9.14235 6.02175 10.1205C4.44235 11.9385 3.01088 14.2193 3.38783 16.6146H3.38306Z" fill="#F1C185"/>
<g id="Group_3">
<path id="Vector_7" d="M39.0172 4.80498C39.9668 4.71432 40.1147 6.19351 39.1604 6.28417C38.2108 6.37483 38.0629 4.89564 39.0172 4.80498Z" fill="white"/>
<path id="Vector_8" d="M34.6608 2.98701C36.5646 2.80569 36.8509 5.76407 34.9423 5.94539C33.0384 6.12671 32.7521 3.16833 34.6608 2.98701Z" fill="white"/>
<path id="Vector_9" d="M27.804 4.4471C28.7535 4.35644 28.9015 5.83563 27.9471 5.92629C26.9976 6.01695 26.8497 4.53776 27.804 4.4471Z" fill="white"/>
<path id="Vector_10" d="M23.7243 2.54325C25.6282 2.36193 25.9145 5.32031 24.0058 5.50163C22.102 5.68295 21.8157 2.72457 23.7243 2.54325Z" fill="white"/>
<path id="Vector_11" d="M27.8565 1.40284C28.8108 1.31218 28.954 2.79137 27.9996 2.88203C27.0453 2.97269 26.9022 1.4935 27.8565 1.40284Z" fill="white"/>
<path id="Vector_12" d="M17.2254 7.12397C18.175 7.03331 18.3229 8.5125 17.3686 8.60316C16.4142 8.69382 16.2711 7.21463 17.2254 7.12397Z" fill="white"/>
<path id="Vector_13" d="M13.7374 9.63858C14.6869 9.54792 14.8348 11.0271 13.8805 11.1178C12.9262 11.2084 12.7831 9.72924 13.7374 9.63858Z" fill="white"/>
<path id="Vector_14" d="M13.5751 4.94813C15.479 4.76681 15.7653 7.72519 13.8567 7.90651C11.9528 8.08783 11.6665 5.12945 13.5751 4.94813Z" fill="white"/>
<path id="Vector_15" d="M21.3337 8.73676C22.288 8.6461 22.4312 10.1253 21.4769 10.2159C20.5226 10.3066 20.3794 8.82742 21.3337 8.73676Z" fill="white"/>
</g>
<path id="Vector_16" opacity="0.33" d="M3.38305 16.6146C4.27057 22.4408 11.7047 22.6746 16.2425 22.9131C23.1469 23.271 30.0801 22.832 36.8605 21.5676C37.8625 21.3958 38.8645 21.1954 39.8475 20.9806C41.6845 20.5798 43.5407 20.055 45.0008 18.8812C46.5993 17.5737 47.6681 15.3836 47.9639 13.1505C46.2128 15.2404 43.7745 16.7005 41.2074 17.6071C38.0152 18.738 34.6321 19.1102 31.2682 19.4299C26.1578 19.9357 20.9186 20.3794 15.9609 19.0529C14.1764 18.5805 12.4109 17.8505 11.0844 16.5478C9.672 15.1211 8.91332 13.1553 8.67474 11.1512C8.53636 9.88672 8.59362 8.60793 8.76063 7.34824C7.77768 8.20712 6.86154 9.13758 6.0122 10.1158C4.4328 11.9337 3.00133 14.2145 3.37828 16.6099L3.38305 16.6146Z" fill="black" fill-opacity="0.2"/>
</g>
</g>
<defs>
<clipPath id="clip0_23_5315">
<rect width="54" height="40.5107" fill="white"/>
</clipPath>
</defs>
</svg>
