<svg width="55" height="53" viewBox="0 0 55 53" fill="none" xmlns="http://www.w3.org/2000/svg">
<g id="Xskin5">
<path id="Vector" d="M27.2382 0C31.9471 0 35.5733 17.0207 35.5733 17.0207C35.5733 17.0207 52.761 15.236 54.2139 19.7519C55.6707 24.2638 40.724 32.9987 40.724 32.9987C40.724 32.9987 47.7177 48.9166 43.9084 51.7039C40.0991 54.4912 27.2342 42.8727 27.2342 42.8727C27.2342 42.8727 14.3694 54.4952 10.56 51.7039C6.75074 48.9126 13.7444 32.9987 13.7444 32.9987C13.7444 32.9987 -1.20224 24.2638 0.25461 19.7519C1.71146 15.2401 18.8951 17.0207 18.8951 17.0207C18.8951 17.0207 22.5214 0 27.2302 0L27.2382 0Z" fill="#8D92EF"/>
</g>
</svg>
