<svg width="55" height="53" viewBox="0 0 55 53" fill="none" xmlns="http://www.w3.org/2000/svg">
<g id="Oskin6">
<g id="Oskin2">
<g id="Group">
<g id="Isolation Mode">
<g id="Group_2">
<path id="Vector" d="M29.6678 49.81C30.1563 48.3499 30.3578 46.7605 30.6701 45.2552C30.8312 44.4756 30.9937 43.6972 31.1548 42.9176C31.2996 42.2183 31.5187 41.4952 31.5452 40.7783C31.5691 40.1167 31.3802 39.4726 30.8602 39.0332C30.2306 38.5022 29.3555 38.3992 28.5761 38.2134C26.7289 37.774 24.8817 37.3334 23.0346 36.8939C22.3861 36.7395 22.065 37.2944 22.1393 37.8205C21.7465 37.6912 21.307 37.8117 21.1736 38.3289C20.4004 41.3094 19.7721 44.3852 19.5669 47.4623C19.1841 53.1834 27.8357 55.2925 29.6678 49.81Z" fill="#E2A069"/>
<g id="Vector_2" style="mix-blend-mode:multiply" opacity="0.15">
<path d="M24.5997 42.0915C24.6072 42.0425 24.606 41.9923 24.6034 41.9434C25.1562 41.9848 25.7039 42.143 26.2731 42.1819C27.9918 42.2986 29.4952 42.4769 31.1258 43.0607C31.1359 43.013 31.146 42.9653 31.1561 42.9176C31.3009 42.2183 31.5199 41.4952 31.5464 40.7783C31.5703 40.1167 31.3814 39.4726 30.8614 39.0332C30.2318 38.5022 29.3567 38.3992 28.5773 38.2134C26.7302 37.774 24.883 37.3334 23.0358 36.8939C22.3873 36.7395 22.0663 37.2944 22.1406 37.8205C21.7477 37.6912 21.3083 37.8117 21.1748 38.3289C20.4017 41.3094 19.7734 44.3852 19.5681 47.4623C19.5681 47.4749 19.5681 47.4874 19.5681 47.5C20.102 46.0725 20.7303 44.5961 21.6999 43.4248C22.0184 43.0406 22.3873 42.7016 22.8016 42.4342C22.6895 43.2264 22.5787 44.0199 22.4667 44.8121C22.4037 45.2602 22.7777 45.7361 23.236 45.7662C23.717 45.7976 24.125 45.4799 24.193 44.9991C24.329 44.0299 24.4662 43.0607 24.6022 42.0902L24.5997 42.0915Z" fill="#FFE03B"/>
</g>
<path id="Vector_3" d="M46.0707 28.1724C47.2001 24.1914 47.7076 20.0095 47.0944 15.9908C44.6831 0.207293 27.7085 -4.63246 17.4074 4.81102C9.29222 12.2521 4.50872 29.3651 15.2367 36.7132C18.6036 39.0182 24.0759 40.8411 28.1669 41.4224C31.8625 41.9471 35.825 41.5241 39.095 39.2743C42.7931 36.7308 44.8883 32.3455 46.0719 28.1736L46.0707 28.1724Z" fill="#FFEF99"/>
<path id="Vector_4" d="M9.68131 28.9181C9.77826 29.006 9.87396 29.0926 9.97973 29.173C11.0336 29.9702 12.5371 30.3443 13.7937 29.8358C14.9055 29.3851 15.7794 28.4875 16.6797 27.7267C18.6225 26.0858 20.9117 25.1078 23.469 25.9126C25.6687 26.6043 26.3021 28.6946 27.1772 30.5703C27.8483 32.0103 29.6514 33.9248 31.5036 33.1603C33.0259 32.5325 33.59 30.3669 34.4941 29.1428C35.0934 28.3331 35.8426 27.6765 36.7731 27.276C37.8699 26.8039 39.2625 26.3344 40.4473 26.7763C42.2932 27.4643 42.3209 29.7743 43.5436 31.0574C43.9087 31.4403 44.3066 31.7441 44.7209 31.9676C45.2674 30.7209 45.7106 29.4366 46.0694 28.1711C47.1989 24.1901 47.7063 20.0082 47.0931 15.9895C44.6831 0.207284 27.7085 -4.63246 17.4074 4.81101C11.5046 10.2232 7.37077 20.7514 9.68131 28.9181Z" fill="#EF8DD1"/>
<g id="Vector_5" style="mix-blend-mode:multiply" opacity="0.15">
<path d="M28.5282 45.4222C28.561 45.2954 28.595 45.1686 28.6277 45.0418C28.673 44.9351 28.6907 44.8259 28.6781 44.7129C28.6856 44.6012 28.6642 44.4932 28.6151 44.389C28.5723 44.2785 28.5068 44.1881 28.4174 44.1153C28.3406 44.0262 28.2449 43.9621 28.1304 43.922C28.0573 43.9044 27.9843 43.8868 27.9113 43.8692C27.7602 43.8542 27.6154 43.8755 27.4756 43.9345L27.2817 44.0488C27.157 44.148 27.0651 44.271 27.0072 44.4179C26.9732 44.5447 26.9405 44.6715 26.9077 44.7983C26.8624 44.905 26.8448 45.0142 26.8574 45.1272C26.8498 45.2389 26.8712 45.3469 26.9203 45.4511C26.9631 45.5616 27.0286 45.652 27.118 45.7248C27.1948 45.8139 27.2905 45.878 27.4051 45.9181L27.6242 45.9709C27.7753 45.9859 27.9201 45.9646 28.0598 45.9056L28.2537 45.7913C28.3784 45.6922 28.4703 45.5691 28.5282 45.421V45.4222Z" fill="#FFE03B"/>
</g>
<g id="Vector_6" style="mix-blend-mode:multiply" opacity="0.15">
<path d="M24.0444 47.785C24.0683 47.7121 24.0923 47.6393 24.1162 47.5653C24.1615 47.4585 24.1791 47.3493 24.1666 47.2363C24.1741 47.1246 24.1527 47.0166 24.1036 46.9124C24.0608 46.8019 23.9953 46.7115 23.9059 46.6387C23.8291 46.5496 23.7321 46.4856 23.6188 46.4454C23.5458 46.4278 23.4728 46.4102 23.3997 46.3927C23.2486 46.3776 23.1038 46.3989 22.9641 46.4579C22.8999 46.4956 22.8344 46.5345 22.7702 46.5722C22.6455 46.6714 22.5536 46.7944 22.4957 46.9413C22.4717 47.0141 22.4478 47.0869 22.4239 47.161C22.3786 47.2677 22.3609 47.3769 22.3735 47.4899C22.366 47.6017 22.3874 47.7096 22.4365 47.8138C22.4793 47.9243 22.5448 48.0147 22.6342 48.0875C22.711 48.1767 22.8067 48.2407 22.9213 48.2809C22.9943 48.2984 23.0673 48.316 23.1403 48.3336C23.2914 48.3487 23.4362 48.3273 23.576 48.2683C23.6402 48.2306 23.7057 48.1917 23.7699 48.1541C23.8946 48.0549 23.9865 47.9318 24.0444 47.785Z" fill="#FFE03B"/>
</g>
<g id="Vector_7" style="mix-blend-mode:multiply" opacity="0.25">
<path d="M45.3051 30.5238C42.8725 33.0008 39.9072 34.9531 36.5931 36.0378C31.9191 37.5669 26.739 37.2957 22.2589 35.2456C18.4173 33.4867 15.5099 30.3782 13.7962 26.5478C12.0309 22.6032 11.492 18.2129 11.4605 13.9306C11.4592 13.7209 11.4655 13.5113 11.4668 13.3029C7.82533 21.4005 7.63394 31.5081 15.2354 36.7145C18.6024 39.0195 24.0746 40.8424 28.1656 41.4236C31.8612 41.9484 35.8237 41.5253 39.0938 39.2756C42.0993 37.2078 44.046 33.9236 45.3051 30.5264V30.5238Z" fill="#FFE03B"/>
</g>
<path id="Vector_8" d="M44.0976 16.4239C44.0372 13.8465 43.2993 11.2778 41.9835 9.05819C41.7455 8.65645 41.3136 8.40284 40.844 8.60372C40.4562 8.76943 40.1477 9.33564 40.3882 9.7399C41.6637 11.8905 42.3222 14.1804 42.3814 16.68C42.3927 17.147 42.9455 17.4709 43.3673 17.4082C43.8785 17.3316 44.1089 16.8934 44.0976 16.4252V16.4239Z" fill="#FFF6F0"/>
<path id="Vector_9" d="M44.0208 18.523C43.123 17.8601 42.0893 19.2499 42.9883 19.914C43.8861 20.5769 44.9198 19.1871 44.0208 18.523Z" fill="#FFF6F0"/>
</g>
</g>
</g>
</g>
</g>
</svg>
